<svg width="300" height="300" version="1.1" xmlns="http://www.w3.org/2000/svg" desc="Created with imagetracer.js version 0.2.1" ><path fill="rgb(55,29,17)" stroke="rgb(55,29,17)" stroke-width="1" opacity="1" d="M 223.5 98 L 225 98.5 L 225 117.5 L 209.5 126 L 209 105 L 223.5 98 Z " /><path fill="rgb(173,113,69)" stroke="rgb(173,113,69)" stroke-width="1" opacity="1" d="M 149.5 9 L 167 17.5 L 158.5 22 L 151.5 18 L 148.5 18 L 141.5 22 L 133 17.5 L 149.5 9 Z " /><path fill="rgb(173,113,69)" stroke="rgb(173,113,69)" stroke-width="1" opacity="1" d="M 123.5 22 L 132 25 Q 133.1 27.7 130.5 27 L 67.5 59 L 64.5 59 L 58 55.5 L 123.5 22 Z " /><path fill="rgb(173,113,69)" stroke="rgb(173,113,69)" stroke-width="1" opacity="1" d="M 174.5 22 L 242 55.5 L 235.5 59 L 232.5 59 L 207.5 47 L 199.5 51 L 193 48 Q 191.9 45.3 194.5 46 L 200 42.5 L 168 27 Q 166.9 24.3 169.5 25 L 174.5 22 Z " /><path fill="rgb(173,113,69)" stroke="rgb(173,113,69)" stroke-width="1" opacity="1" d="M 140.5 39 L 143.5 39 L 150 42.5 L 141.5 47 L 134 42.5 L 140.5 39 Z " /><path fill="rgb(173,113,69)" stroke="rgb(173,113,69)" stroke-width="1" opacity="1" d="M 124.5 47 L 132 50 Q 133.1 52.7 130.5 52 L 115.5 59 L 109 55.5 L 124.5 47 Z " /><path fill="rgb(173,113,69)" stroke="rgb(173,113,69)" stroke-width="1" opacity="1" d="M 174.5 47 L 191 55.5 L 182.5 59 L 168 52 Q 166.9 49.3 169.5 50 L 174.5 47 Z " /><path fill="rgb(173,113,69)" stroke="rgb(173,113,69)" stroke-width="1" opacity="1" d="M 47.5 60 L 50.5 60 L 57 63.5 L 50 67.5 L 57 71 Q 58.1 73.7 55.5 73 L 48.5 76 L 33 67.5 L 47.5 60 Z " /><path fill="rgb(173,113,69)" stroke="rgb(173,113,69)" stroke-width="1" opacity="1" d="M 148.5 60 L 151.5 60 L 166 67.5 L 149.5 76 L 134 67.5 L 148.5 60 Z " /><path fill="rgb(173,113,69)" stroke="rgb(173,113,69)" stroke-width="1" opacity="1" d="M 207.5 64 L 216 67 Q 217.1 69.7 214.5 69 L 208.5 72 L 201 67.5 L 207.5 64 Z " /><path fill="rgb(173,113,69)" stroke="rgb(173,113,69)" stroke-width="1" opacity="1" d="M 257.5 64 L 260.5 64 L 267 67.5 L 249.5 76 L 243 73 Q 241.9 70.3 244.5 71 L 257.5 64 Z " /><path fill="rgb(173,113,69)" stroke="rgb(173,113,69)" stroke-width="1" opacity="1" d="M 98.5 68 L 107 71 Q 108.1 73.7 105.5 73 L 98.5 76 L 92 73 Q 90.9 70.3 93.5 71 L 98.5 68 Z " /><path fill="rgb(173,113,69)" stroke="rgb(173,113,69)" stroke-width="1" opacity="1" d="M 74.5 72 L 82 76.5 L 75 80.5 L 133 109.5 L 124.5 114 L 58 80.5 L 74.5 72 Z " /><path fill="rgb(173,113,69)" stroke="rgb(173,113,69)" stroke-width="1" opacity="1" d="M 116.5 76 L 133 84.5 L 124.5 89 L 108 80.5 L 116.5 76 Z " /><path fill="rgb(173,113,69)" stroke="rgb(173,113,69)" stroke-width="1" opacity="1" d="M 183.5 76 L 192 80.5 L 175.5 89 L 167 84.5 L 183.5 76 Z " /><path fill="rgb(173,113,69)" stroke="rgb(173,113,69)" stroke-width="1" opacity="1" d="M 233.5 76 L 242 80.5 L 174.5 114 L 159 105.5 L 165.5 102 L 168.5 102 Q 170.4 105.6 176.5 105 L 233.5 76 Z " /><path fill="rgb(173,113,69)" stroke="rgb(173,113,69)" stroke-width="1" opacity="1" d="M 157.5 89 L 166 92 Q 167.1 94.7 164.5 94 L 151.5 101 L 148.5 101 L 142 97.5 L 157.5 89 Z " /><path fill="rgb(173,113,69)" stroke="rgb(173,113,69)" stroke-width="1" opacity="1" d="M 140.5 106 L 149 109 Q 150.1 111.7 147.5 111 L 143 113 Q 141.9 115.7 144.5 115 L 150.5 118 L 158.5 114 L 166 118.5 L 151.5 126 L 148.5 126 L 134 118.5 L 141 115 Q 142.1 112.3 139.5 113 L 134 109.5 L 140.5 106 Z " /><path fill="rgb(160,103,59)" stroke="rgb(160,103,59)" stroke-width="1" opacity="1" d="M 140.5 22 L 149 25 Q 150.1 27.7 147.5 27 L 99.5 51 L 92 46.5 L 140.5 22 Z " /><path fill="rgb(160,103,59)" stroke="rgb(160,103,59)" stroke-width="1" opacity="1" d="M 157.5 22 L 200 42.5 L 191.5 47 L 151 27 Q 149.9 24.3 152.5 25 L 157.5 22 Z " /><path fill="rgb(160,103,59)" stroke="rgb(160,103,59)" stroke-width="1" opacity="1" d="M 148.5 35 L 151.5 35 L 166 42.5 L 149.5 51 L 142 46.5 L 150 42.5 L 142 38.5 L 148.5 35 Z " /><path fill="rgb(160,103,59)" stroke="rgb(160,103,59)" stroke-width="1" opacity="1" d="M 207.5 47 L 242 63.5 L 235 67 Q 233.9 69.7 236.5 69 L 241 71 Q 242.1 73.7 239.5 73 L 176.5 105 L 173.5 105 L 167 101.5 L 233 69 Q 234.1 66.3 231.5 67 L 201 52 Q 199.9 49.3 202.5 50 L 207.5 47 Z " /><path fill="rgb(160,103,59)" stroke="rgb(160,103,59)" stroke-width="1" opacity="1" d="M 82.5 51 L 91 55.5 L 67 67 Q 65.9 69.7 68.5 69 L 74 72.5 L 65.5 76 L 59 73 Q 57.9 70.3 60.5 71 L 65 69 Q 66.1 66.3 63.5 67 L 58 63.5 L 82.5 51 Z " /><path fill="rgb(160,103,59)" stroke="rgb(160,103,59)" stroke-width="1" opacity="1" d="M 132.5 51 L 141 55.5 L 126.5 63 L 123.5 63 L 117 59.5 L 132.5 51 Z " /><path fill="rgb(160,103,59)" stroke="rgb(160,103,59)" stroke-width="1" opacity="1" d="M 175.5 55 L 183 59.5 L 176.5 63 L 173.5 63 L 167 59.5 L 175.5 55 Z " /><path fill="rgb(160,103,59)" stroke="rgb(160,103,59)" stroke-width="1" opacity="1" d="M 98.5 60 L 101.5 60 L 116 67.5 L 107.5 72 L 98.5 68 L 90.5 72 L 84 69 Q 82.9 66.3 85.5 67 L 98.5 60 Z " /><path fill="rgb(160,103,59)" stroke="rgb(160,103,59)" stroke-width="1" opacity="1" d="M 198.5 60 L 201.5 60 L 208 63.5 L 201 67.5 L 208 71 Q 209.1 73.7 206.5 73 L 199.5 76 L 193 73 Q 191.9 70.3 194.5 71 L 200 67.5 L 192 63.5 L 198.5 60 Z " /><path fill="rgb(160,103,59)" stroke="rgb(160,103,59)" stroke-width="1" opacity="1" d="M 124.5 72 L 133 76.5 L 126.5 80 L 123.5 80 L 117 76.5 L 124.5 72 Z " /><path fill="rgb(160,103,59)" stroke="rgb(160,103,59)" stroke-width="1" opacity="1" d="M 174.5 72 L 183 76.5 L 168.5 84 L 165.5 84 L 159 80.5 L 174.5 72 Z " /><path fill="rgb(160,103,59)" stroke="rgb(160,103,59)" stroke-width="1" opacity="1" d="M 82.5 76 L 141 105.5 L 133.5 110 L 75 80.5 L 82.5 76 Z " /><path fill="rgb(160,103,59)" stroke="rgb(160,103,59)" stroke-width="1" opacity="1" d="M 148.5 85 L 151.5 85 L 158 88.5 L 140.5 97 L 134 94 Q 132.9 91.3 135.5 92 L 148.5 85 Z " /><path fill="rgb(160,103,59)" stroke="rgb(160,103,59)" stroke-width="1" opacity="1" d="M 66.5 93 L 75 97 L 75 106.5 L 73.5 107 L 66 102.5 L 66.5 93 Z " /><path fill="rgb(160,103,59)" stroke="rgb(160,103,59)" stroke-width="1" opacity="1" d="M 91 106 L 100 110.5 L 99.5 120 L 91 116 L 91 106 Z " /><path fill="rgb(160,103,59)" stroke="rgb(160,103,59)" stroke-width="1" opacity="1" d="M 157.5 106 L 166 109.5 L 157.5 114 L 151 111 Q 149.9 108.3 152.5 109 L 157.5 106 Z " /><path fill="rgb(65,41,24)" stroke="rgb(65,41,24)" stroke-width="1" opacity="1" d="M 158.5 30 L 166 34.5 L 159.5 38 L 156.5 38 L 150 34.5 L 158.5 30 Z " /><path fill="rgb(65,41,24)" stroke="rgb(65,41,24)" stroke-width="1" opacity="1" d="M 157.5 47 L 166 50 Q 167.1 52.7 164.5 52 L 157.5 55 L 151 52 Q 149.9 49.3 152.5 50 L 157.5 47 Z " /><path fill="rgb(65,41,24)" stroke="rgb(65,41,24)" stroke-width="1" opacity="1" d="M 191.5 47 L 208 55.5 L 193.5 63 L 190.5 63 L 184 59.5 L 191 55.5 L 184 51.5 L 191.5 47 Z " /><path fill="rgb(65,41,24)" stroke="rgb(65,41,24)" stroke-width="1" opacity="1" d="M 99.5 51 L 108 55.5 L 91.5 64 L 83 59.5 L 99.5 51 Z " /><path fill="rgb(65,41,24)" stroke="rgb(65,41,24)" stroke-width="1" opacity="1" d="M 90.5 72 L 99 76.5 L 92.5 80 L 89.5 80 L 83 76.5 L 90.5 72 Z " /><path fill="rgb(65,41,24)" stroke="rgb(65,41,24)" stroke-width="1" opacity="1" d="M 141.5 72 L 149 75 Q 150.1 77.7 147.5 77 L 142 80.5 L 150 84.5 L 141.5 89 L 133 84.5 L 141 80.5 L 134 76.5 L 141.5 72 Z " /><path fill="rgb(65,41,24)" stroke="rgb(65,41,24)" stroke-width="1" opacity="1" d="M 191.5 72 L 200 76.5 L 193.5 80 L 190.5 80 L 184 76.5 L 191.5 72 Z " /><path fill="rgb(65,41,24)" stroke="rgb(65,41,24)" stroke-width="1" opacity="1" d="M 64.5 85 L 67.5 85 L 116 109.5 L 107.5 114 L 91 106 L 90.5 126 L 75 117.5 L 75 97.5 L 73.5 97 L 58 88.5 L 64.5 85 Z " /><path fill="rgb(65,41,24)" stroke="rgb(65,41,24)" stroke-width="1" opacity="1" d="M 41.5 111 L 58 119 L 57.5 130 L 41 122 L 41.5 111 Z " /><path fill="rgb(65,41,24)" stroke="rgb(65,41,24)" stroke-width="1" opacity="1" d="M 100 141 L 108 144 L 107.5 155 L 100 150.5 L 100 141 Z " /><path fill="rgb(65,41,24)" stroke="rgb(65,41,24)" stroke-width="1" opacity="1" d="M 100 172 L 108 175 L 107.5 186 L 100 181.5 L 100 172 Z " /><path fill="rgb(65,41,24)" stroke="rgb(65,41,24)" stroke-width="1" opacity="1" d="M 207.5 188 L 209 188.5 L 209 197.5 L 200 202 L 200 192.5 L 201.5 191 L 207.5 188 Z " /><path fill="rgb(65,41,24)" stroke="rgb(65,41,24)" stroke-width="1" opacity="1" d="M 49 198 L 66 206.5 L 65.5 216 L 49 208 L 49 198 Z " /><path fill="rgb(65,41,24)" stroke="rgb(65,41,24)" stroke-width="1" opacity="1" d="M 133 199 L 142 203.5 L 141.5 213 L 133 209 L 133 199 Z " /><path fill="rgb(65,41,24)" stroke="rgb(65,41,24)" stroke-width="1" opacity="1" d="M 190.5 207 L 192 207.5 L 192 217 L 184 220 L 184 210.5 L 185.5 210 L 190.5 207 Z " /><path fill="rgb(65,41,24)" stroke="rgb(65,41,24)" stroke-width="1" opacity="1" d="M 133 240 L 142 244.5 L 141.5 254 L 133 250 L 133 240 Z " /><path fill="rgb(65,41,24)" stroke="rgb(65,41,24)" stroke-width="1" opacity="1" d="M 116.5 272 L 125 276 L 125 285.5 L 123.5 286 L 116 281.5 L 116.5 272 Z " /><path fill="rgb(127,104,63)" stroke="rgb(127,104,63)" stroke-width="1" opacity="1" d="M 24.5 72 L 58 89.5 L 57.5 99 L 24 81.5 L 24.5 72 Z " /><path fill="rgb(127,104,63)" stroke="rgb(127,104,63)" stroke-width="1" opacity="1" d="M 33.5 97 L 49 105.5 L 48.5 115 L 33 106.5 L 33.5 97 Z " /><path fill="rgb(127,104,63)" stroke="rgb(127,104,63)" stroke-width="1" opacity="1" d="M 58 110 L 66 113 L 66 122.5 L 64.5 123 L 58 120 L 58 110 Z " /><path fill="rgb(127,104,63)" stroke="rgb(127,104,63)" stroke-width="1" opacity="1" d="M 24.5 113 L 41 121 L 40.5 132 L 33.5 128 L 32.5 138 L 24 134 L 24.5 113 Z " /><path fill="rgb(127,104,63)" stroke="rgb(127,104,63)" stroke-width="1" opacity="1" d="M 100.5 120 L 108 124.5 L 108 133.5 L 106.5 134 L 100 131 L 100.5 120 Z " /><path fill="rgb(127,104,63)" stroke="rgb(127,104,63)" stroke-width="1" opacity="1" d="M 49 126 L 58 130.5 L 58 139.5 L 56.5 140 L 49 135.5 L 49 126 Z " /><path fill="rgb(127,104,63)" stroke="rgb(127,104,63)" stroke-width="1" opacity="1" d="M 116.5 128 L 125 132 L 124.5 143 L 116 139 L 116.5 128 Z " /><path fill="rgb(127,104,63)" stroke="rgb(127,104,63)" stroke-width="1" opacity="1" d="M 91 147 L 100 151.5 L 100 160.5 L 98.5 161 L 91 156.5 L 91 147 Z " /><path fill="rgb(127,104,63)" stroke="rgb(127,104,63)" stroke-width="1" opacity="1" d="M 24 165 L 33 169.5 L 32.5 179 L 24 175 L 24 165 Z " /><path fill="rgb(127,104,63)" stroke="rgb(127,104,63)" stroke-width="1" opacity="1" d="M 91.5 167 L 100 171 L 99.5 182 L 91 178 L 91.5 167 Z " /><path fill="rgb(127,104,63)" stroke="rgb(127,104,63)" stroke-width="1" opacity="1" d="M 66.5 175 L 75 179 L 74.5 190 L 66 186 L 66.5 175 Z " /><path fill="rgb(127,104,63)" stroke="rgb(127,104,63)" stroke-width="1" opacity="1" d="M 66 196 L 75 200.5 L 75 209.5 L 73.5 210 L 66 205.5 L 66 196 Z " /><path fill="rgb(127,104,63)" stroke="rgb(127,104,63)" stroke-width="1" opacity="1" d="M 91.5 198 L 108 206 L 108 215.5 L 106.5 216 L 100 213 L 99.5 223 L 91 219 L 91.5 198 Z " /><path fill="rgb(127,104,63)" stroke="rgb(127,104,63)" stroke-width="1" opacity="1" d="M 198.5 203 L 200 203.5 L 200 213 L 192 216 L 192 206.5 L 193.5 206 L 198.5 203 Z " /><path fill="rgb(127,104,63)" stroke="rgb(127,104,63)" stroke-width="1" opacity="1" d="M 41 204 L 49 207 L 49 227.5 L 50.5 229 L 58 232 L 57.5 243 L 49 239 L 49 228.5 L 47.5 227 L 41.5 224 L 41 234 L 33 231 L 33 220.5 L 31.5 219 L 24 216 L 24 206.5 L 25.5 206 L 33 210.5 L 33 219.5 L 34.5 221 L 40.5 224 L 41 204 Z " /><path fill="rgb(127,104,63)" stroke="rgb(127,104,63)" stroke-width="1" opacity="1" d="M 182.5 211 L 184 211.5 L 184 221 L 175.5 225 L 175 215.5 L 182.5 211 Z " /><path fill="rgb(127,104,63)" stroke="rgb(127,104,63)" stroke-width="1" opacity="1" d="M 58.5 212 L 66 216.5 L 66 225.5 L 64.5 226 L 58 223 L 58.5 212 Z " /><path fill="rgb(127,104,63)" stroke="rgb(127,104,63)" stroke-width="1" opacity="1" d="M 91 229 L 116 241.5 L 116 251.5 L 117.5 252 L 125 256.5 L 124.5 266 L 108 258 L 107.5 268 L 100 263.5 L 100 254.5 L 101.5 254 L 108 257 L 108 247.5 L 106.5 247 L 91 238.5 L 91 229 Z " /><path fill="rgb(165,154,137)" stroke="rgb(165,154,137)" stroke-width="1" opacity="1" d="M 249.5 60 L 252.5 60 L 259 63.5 L 250.5 68 L 243 63.5 L 249.5 60 Z " /><path fill="rgb(165,154,137)" stroke="rgb(165,154,137)" stroke-width="1" opacity="1" d="M 49 167 L 58 171.5 L 57.5 202 L 49 198 L 49 187.5 L 47.5 186 L 33 178.5 L 33.5 169 L 48.5 177 L 49 167 Z " /><path fill="rgb(165,154,137)" stroke="rgb(165,154,137)" stroke-width="1" opacity="1" d="M 108 176 L 133 188.5 L 132.5 260 L 125 255.5 L 125 235.5 L 123.5 235 L 116 230.5 L 116 200.5 L 114.5 199 L 108 195.5 L 108 176 Z " /><path fill="rgb(165,154,137)" stroke="rgb(165,154,137)" stroke-width="1" opacity="1" d="M 191.5 186 L 192.5 196 L 199.5 192 L 200 203 L 192 206 L 191.5 196 L 184 200.5 L 184 210.5 L 182.5 211 L 175.5 215 L 175 204 L 184 199.5 L 184 190.5 L 185.5 189 L 191.5 186 Z " /><path fill="rgb(117,76,46)" stroke="rgb(117,76,46)" stroke-width="1" opacity="1" d="M 90.5 47 L 99 50 Q 100.1 52.7 97.5 52 L 90.5 55 L 84 52 Q 82.9 49.3 85.5 50 L 90.5 47 Z " /><path fill="rgb(117,76,46)" stroke="rgb(117,76,46)" stroke-width="1" opacity="1" d="M 166.5 51 L 175 55.5 L 168.5 59 L 165.5 59 L 159 55.5 L 166.5 51 Z " /><path fill="rgb(117,76,46)" stroke="rgb(117,76,46)" stroke-width="1" opacity="1" d="M 190.5 64 L 193.5 64 L 200 67.5 L 191.5 72 L 184 67.5 L 190.5 64 Z " /><path fill="rgb(117,76,46)" stroke="rgb(117,76,46)" stroke-width="1" opacity="1" d="M 133.5 76 L 141 80.5 L 134.5 84 L 131.5 84 L 125 80.5 L 133.5 76 Z " /><path fill="rgb(117,76,46)" stroke="rgb(117,76,46)" stroke-width="1" opacity="1" d="M 233.5 93 L 234 102.5 L 225 107 L 225 97.5 L 226.5 97 L 233.5 93 Z " /><path fill="rgb(117,76,46)" stroke="rgb(117,76,46)" stroke-width="1" opacity="1" d="M 207.5 106 L 209 106.5 L 209 116 L 200.5 120 L 200 110.5 L 207.5 106 Z " /><path fill="rgb(117,76,46)" stroke="rgb(117,76,46)" stroke-width="1" opacity="1" d="M 100 162 L 108 165 L 108 174.5 L 106.5 175 L 100 172 L 100 162 Z " /><path fill="rgb(117,76,46)" stroke="rgb(117,76,46)" stroke-width="1" opacity="1" d="M 116.5 241 L 125 245 L 124.5 256 L 116 252 L 116.5 241 Z " /><path fill="rgb(39,32,19)" stroke="rgb(39,32,19)" stroke-width="1" opacity="1" d="M 131.5 18 L 134.5 18 L 141 21.5 L 132.5 26 L 125 21.5 L 131.5 18 Z " /><path fill="rgb(39,32,19)" stroke="rgb(39,32,19)" stroke-width="1" opacity="1" d="M 148.5 18 L 151.5 18 L 158 21.5 L 149.5 26 L 142 21.5 L 148.5 18 Z " /><path fill="rgb(39,32,19)" stroke="rgb(39,32,19)" stroke-width="1" opacity="1" d="M 165.5 18 L 168.5 18 L 175 21.5 L 166.5 26 L 159 21.5 L 165.5 18 Z " /><path fill="rgb(39,32,19)" stroke="rgb(39,32,19)" stroke-width="1" opacity="1" d="M 57.5 55 L 66 59.5 L 58 63.5 L 65 67 Q 66.1 69.7 63.5 69 L 59 71 Q 57.9 73.7 60.5 73 L 66 76.5 L 59.5 80 L 56.5 80 L 50 76.5 L 57 73 Q 58.1 70.3 55.5 71 L 50 67.5 L 57 63.5 L 49 59.5 L 57.5 55 Z " /><path fill="rgb(39,32,19)" stroke="rgb(39,32,19)" stroke-width="1" opacity="1" d="M 242.5 55 L 251 59.5 L 243 63.5 L 250 67.5 L 243 71 Q 241.9 73.7 244.5 73 L 250 76.5 L 243.5 80 L 240.5 80 L 234 76.5 L 241 73 Q 242.1 70.3 239.5 71 L 235 69 Q 233.9 66.3 236.5 67 L 242 63.5 L 234 59.5 L 242.5 55 Z " /><path fill="rgb(39,32,19)" stroke="rgb(39,32,19)" stroke-width="1" opacity="1" d="M 58.5 89 L 66 93.5 L 65.5 103 L 58 98.5 L 58.5 89 Z " /><path fill="rgb(39,32,19)" stroke="rgb(39,32,19)" stroke-width="1" opacity="1" d="M 100.5 110 L 108 114.5 L 107.5 124 L 100 119.5 L 100.5 110 Z " /><path fill="rgb(39,32,19)" stroke="rgb(39,32,19)" stroke-width="1" opacity="1" d="M 132.5 110 L 141 113 Q 142.1 115.7 139.5 115 L 132.5 118 L 126 115 Q 124.9 112.3 127.5 113 L 132.5 110 Z " /><path fill="rgb(39,32,19)" stroke="rgb(39,32,19)" stroke-width="1" opacity="1" d="M 149.5 110 L 157 113 Q 158.1 115.7 155.5 115 L 149.5 118 L 143 115 Q 141.9 112.3 144.5 113 L 149.5 110 Z " /><path fill="rgb(39,32,19)" stroke="rgb(39,32,19)" stroke-width="1" opacity="1" d="M 165.5 110 L 174 113 Q 175.1 115.7 172.5 115 L 165.5 118 L 159 115 Q 157.9 112.3 160.5 113 L 165.5 110 Z " /><path fill="rgb(39,32,19)" stroke="rgb(39,32,19)" stroke-width="1" opacity="1" d="M 240.5 120 L 242 120.5 L 242 129.5 L 234.5 134 L 234 123 L 240.5 120 Z " /><path fill="rgb(39,32,19)" stroke="rgb(39,32,19)" stroke-width="1" opacity="1" d="M 83.5 122 L 91 126.5 L 90.5 136 L 83 131.5 L 83.5 122 Z " /><path fill="rgb(39,32,19)" stroke="rgb(39,32,19)" stroke-width="1" opacity="1" d="M 83 143 L 91 146 L 90.5 157 L 83 152.5 L 83 143 Z " /><path fill="rgb(39,32,19)" stroke="rgb(39,32,19)" stroke-width="1" opacity="1" d="M 190.5 145 L 192 145.5 L 192 154.5 L 175 163 L 175 153.5 L 176.5 152 L 190.5 145 Z " /><path fill="rgb(39,32,19)" stroke="rgb(39,32,19)" stroke-width="1" opacity="1" d="M 240.5 151 L 242 151.5 L 242 160.5 L 243.5 160 L 251 157 L 251 166.5 L 249.5 167 L 242.5 171 L 241.5 161 L 234.5 165 L 234 154 L 240.5 151 Z " /><path fill="rgb(39,32,19)" stroke="rgb(39,32,19)" stroke-width="1" opacity="1" d="M 75 180 L 91 187 L 90.5 198 L 75 189.5 L 75 180 Z " /><path fill="rgb(39,32,19)" stroke="rgb(39,32,19)" stroke-width="1" opacity="1" d="M 257.5 194 L 259 194.5 L 259 204 L 251 207 L 251 197.5 L 252.5 197 L 257.5 194 Z " /><path fill="rgb(39,32,19)" stroke="rgb(39,32,19)" stroke-width="1" opacity="1" d="M 83.5 235 L 91 239.5 L 91 258.5 L 89.5 259 L 83 256 L 83.5 235 Z " /><path fill="rgb(39,32,19)" stroke="rgb(39,32,19)" stroke-width="1" opacity="1" d="M 257.5 235 L 259 235.5 L 259 245 L 251 248 L 251 238.5 L 252.5 238 L 257.5 235 Z " /><path fill="rgb(88,67,40)" stroke="rgb(88,67,40)" stroke-width="1" opacity="1" d="M 115.5 43 L 124 46 Q 125.1 48.7 122.5 48 L 115.5 51 L 109 48 Q 107.9 45.3 110.5 46 L 115.5 43 Z " /><path fill="rgb(88,67,40)" stroke="rgb(88,67,40)" stroke-width="1" opacity="1" d="M 73.5 64 L 82 67 Q 83.1 69.7 80.5 69 L 73.5 72 L 67 69 Q 65.9 66.3 68.5 67 L 73.5 64 Z " /><path fill="rgb(88,67,40)" stroke="rgb(88,67,40)" stroke-width="1" opacity="1" d="M 132.5 93 L 141 97.5 L 134.5 101 L 131.5 101 L 125 97.5 L 132.5 93 Z " /><path fill="rgb(88,67,40)" stroke="rgb(88,67,40)" stroke-width="1" opacity="1" d="M 24 103 L 41 111.5 L 41 120.5 L 39.5 121 L 24 112.5 L 24 103 Z " /><path fill="rgb(88,67,40)" stroke="rgb(88,67,40)" stroke-width="1" opacity="1" d="M 49.5 105 L 58 109 L 58 118.5 L 56.5 119 L 49 114.5 L 49.5 105 Z " /><path fill="rgb(88,67,40)" stroke="rgb(88,67,40)" stroke-width="1" opacity="1" d="M 41 122 L 49 125 L 48.5 136 L 41 131.5 L 41 122 Z " /><path fill="rgb(88,67,40)" stroke="rgb(88,67,40)" stroke-width="1" opacity="1" d="M 240.5 141 L 242 141.5 L 242 151 L 234 154 L 234 144.5 L 235.5 144 L 240.5 141 Z " /><path fill="rgb(88,67,40)" stroke="rgb(88,67,40)" stroke-width="1" opacity="1" d="M 33 149 L 41 152 L 41 161.5 L 39.5 162 L 33 159 L 33 149 Z " /><path fill="rgb(88,67,40)" stroke="rgb(88,67,40)" stroke-width="1" opacity="1" d="M 100.5 151 L 108 155.5 L 108 164.5 L 106.5 165 L 100 162 L 100.5 151 Z " /><path fill="rgb(88,67,40)" stroke="rgb(88,67,40)" stroke-width="1" opacity="1" d="M 49 157 L 75 169 L 75 178.5 L 73.5 179 L 49 167 L 49 157 Z " /><path fill="rgb(88,67,40)" stroke="rgb(88,67,40)" stroke-width="1" opacity="1" d="M 133.5 178 L 142 182 L 142 191.5 L 140.5 192 L 133 187.5 L 133.5 178 Z " /><path fill="rgb(88,67,40)" stroke="rgb(88,67,40)" stroke-width="1" opacity="1" d="M 100.5 182 L 108 186.5 L 107.5 196 L 100 191.5 L 100.5 182 Z " /><path fill="rgb(88,67,40)" stroke="rgb(88,67,40)" stroke-width="1" opacity="1" d="M 258.5 183 L 259 194 L 251 197 L 251 187.5 L 252.5 186 L 258.5 183 Z " /><path fill="rgb(88,67,40)" stroke="rgb(88,67,40)" stroke-width="1" opacity="1" d="M 24.5 185 L 33 189 L 33 198.5 L 31.5 199 L 24 194.5 L 24.5 185 Z " /><path fill="rgb(88,67,40)" stroke="rgb(88,67,40)" stroke-width="1" opacity="1" d="M 257.5 204 L 259 204.5 L 259 213.5 L 251.5 218 L 251 207 L 257.5 204 Z " /><path fill="rgb(88,67,40)" stroke="rgb(88,67,40)" stroke-width="1" opacity="1" d="M 66.5 206 L 75 210 L 75 219.5 L 73.5 220 L 66 215.5 L 66.5 206 Z " /><path fill="rgb(88,67,40)" stroke="rgb(88,67,40)" stroke-width="1" opacity="1" d="M 133.5 219 L 142 223 L 142 232.5 L 140.5 233 L 133 228.5 L 133.5 219 Z " /><path fill="rgb(88,67,40)" stroke="rgb(88,67,40)" stroke-width="1" opacity="1" d="M 41.5 224 L 49 228.5 L 49 237.5 L 47.5 238 L 41 235 L 41.5 224 Z " /><path fill="rgb(88,67,40)" stroke="rgb(88,67,40)" stroke-width="1" opacity="1" d="M 49 239 L 66 247.5 L 65.5 257 L 49 249 L 49 239 Z " /><path fill="rgb(88,67,40)" stroke="rgb(88,67,40)" stroke-width="1" opacity="1" d="M 183.5 241 L 184 262 L 175.5 266 L 175 245 L 183.5 241 Z " /><path fill="rgb(88,67,40)" stroke="rgb(88,67,40)" stroke-width="1" opacity="1" d="M 125.5 256 L 142 264 L 142 273.5 L 140.5 274 L 125 265.5 L 125.5 256 Z " /><path fill="rgb(88,67,40)" stroke="rgb(88,67,40)" stroke-width="1" opacity="1" d="M 108.5 268 L 116 272.5 L 115.5 282 L 108 277.5 L 108.5 268 Z " /><path fill="rgb(88,67,40)" stroke="rgb(88,67,40)" stroke-width="1" opacity="1" d="M 125 277 L 142 285.5 L 141.5 295 L 125 287 L 125 277 Z " /><path fill="rgb(20,16,9)" stroke="rgb(20,16,9)" stroke-width="1" opacity="1" d="M 149.5 1 L 250 51.5 L 241.5 55 L 149.5 9 L 24 72.5 L 23.5 236 L 16 231.5 L 16 68.5 L 17.5 67 L 149.5 1 Z " /><path fill="rgb(20,16,9)" stroke="rgb(20,16,9)" stroke-width="1" opacity="1" d="M 257.5 56 L 260.5 56 L 267 59.5 L 260.5 63 L 257.5 63 L 251 59.5 L 257.5 56 Z " /><path fill="rgb(20,16,9)" stroke="rgb(20,16,9)" stroke-width="1" opacity="1" d="M 266.5 68 L 275 71 Q 276.1 73.7 273.5 73 L 224.5 97 L 218 94 Q 216.9 91.3 219.5 92 L 266.5 68 Z " /><path fill="rgb(20,16,9)" stroke="rgb(20,16,9)" stroke-width="1" opacity="1" d="M 283.5 68 L 284 231.5 L 276.5 236 L 276 72.5 L 283.5 68 Z " /><path fill="rgb(20,16,9)" stroke="rgb(20,16,9)" stroke-width="1" opacity="1" d="M 40.5 72 L 49 76.5 L 42.5 80 L 39.5 80 L 33 76.5 L 40.5 72 Z " /><path fill="rgb(20,16,9)" stroke="rgb(20,16,9)" stroke-width="1" opacity="1" d="M 56.5 81 L 59.5 81 L 66 84.5 L 57.5 89 L 50 84.5 L 56.5 81 Z " /><path fill="rgb(20,16,9)" stroke="rgb(20,16,9)" stroke-width="1" opacity="1" d="M 208.5 97 L 217 101.5 L 158 131.5 L 158 294.5 L 156.5 296 L 149.5 299 L 142 294.5 L 142 131.5 L 140.5 130 L 109 115 Q 107.9 112.3 110.5 113 L 117.5 110 L 148.5 126 L 151.5 126 L 208.5 97 Z " /><path fill="rgb(20,16,9)" stroke="rgb(20,16,9)" stroke-width="1" opacity="1" d="M 233.5 103 L 234 114 L 225.5 118 L 225 107 L 233.5 103 Z " /><path fill="rgb(20,16,9)" stroke="rgb(20,16,9)" stroke-width="1" opacity="1" d="M 207.5 116 L 209 116.5 L 209 125.5 L 200 130 L 200 120.5 L 201.5 119 L 207.5 116 Z " /><path fill="rgb(20,16,9)" stroke="rgb(20,16,9)" stroke-width="1" opacity="1" d="M 75.5 128 L 91 136.5 L 91 145.5 L 89.5 146 L 75 139 L 75.5 128 Z " /><path fill="rgb(20,16,9)" stroke="rgb(20,16,9)" stroke-width="1" opacity="1" d="M 224.5 128 L 225 139 L 217 142 L 217.5 163 L 224.5 159 L 225 180 L 209 187 L 209 136.5 L 210.5 135 L 224.5 128 Z " /><path fill="rgb(20,16,9)" stroke="rgb(20,16,9)" stroke-width="1" opacity="1" d="M 198.5 162 L 200 162.5 L 200 181.5 L 192.5 186 L 192 165 L 198.5 162 Z " /><path fill="rgb(20,16,9)" stroke="rgb(20,16,9)" stroke-width="1" opacity="1" d="M 75 170 L 91 177 L 91 186.5 L 89.5 187 L 75 180 L 75 170 Z " /><path fill="rgb(20,16,9)" stroke="rgb(20,16,9)" stroke-width="1" opacity="1" d="M 182.5 170 L 184 170.5 L 184 189.5 L 175 194 L 175 174.5 L 176.5 173 L 182.5 170 Z " /><path fill="rgb(20,16,9)" stroke="rgb(20,16,9)" stroke-width="1" opacity="1" d="M 224.5 190 L 225 230.5 L 217 235.5 L 217 254.5 L 218.5 255 L 225 252 L 225 261.5 L 223.5 262 L 209 269 L 209 208.5 L 210.5 207 L 217 203.5 L 217 194.5 L 218.5 193 L 224.5 190 Z " /><path fill="rgb(20,16,9)" stroke="rgb(20,16,9)" stroke-width="1" opacity="1" d="M 75.5 200 L 83 204.5 L 83 214.5 L 84.5 215 L 91 218 L 91 227.5 L 89.5 228 L 83 225 L 82.5 235 L 75 230.5 L 75.5 200 Z " /><path fill="rgb(20,16,9)" stroke="rgb(20,16,9)" stroke-width="1" opacity="1" d="M 75 252 L 91 259 L 91 268.5 L 89.5 269 L 75 262 L 75 252 Z " /><path fill="rgb(0,0,0)" stroke="rgb(0,0,0)" stroke-width="1" opacity="0" d="M 0 0 L 300 0 L 300 300 L 0 300 L 0 0 Z M 150 1 L 18 67 L 16 69 L 16 232 L 150 299 L 283 233 L 284 232 L 284 69 L 150 1 Z " /><path fill="rgb(111,88,56)" stroke="rgb(111,88,56)" stroke-width="1" opacity="1" d="M 275.5 72 L 276 103 L 259.5 111 L 259 91 L 251 94 L 251 114.5 L 249.5 116 L 225.5 128 L 225 118.5 L 242 110 L 242 89.5 L 243.5 88 L 275.5 72 Z " /><path fill="rgb(111,88,56)" stroke="rgb(111,88,56)" stroke-width="1" opacity="1" d="M 275.5 113 L 276 124 L 251 136.5 L 251.5 146 L 276 134 L 276 143.5 L 274.5 145 L 242.5 161 L 242 140 L 251 135.5 L 251 125.5 L 252.5 125 L 275.5 113 Z " /><path fill="rgb(111,88,56)" stroke="rgb(111,88,56)" stroke-width="1" opacity="1" d="M 199.5 120 L 200 130 L 208.5 126 L 209 135.5 L 200 140 L 200 131.5 L 198.5 131 L 184 138 L 184 128.5 L 185.5 127 L 199.5 120 Z " /><path fill="rgb(111,88,56)" stroke="rgb(111,88,56)" stroke-width="1" opacity="1" d="M 173.5 133 L 175 133.5 L 175 142.5 L 167 147.5 L 167 156.5 L 165.5 158 L 158 161 L 158 141.5 L 159.5 140 L 173.5 133 Z " /><path fill="rgb(111,88,56)" stroke="rgb(111,88,56)" stroke-width="1" opacity="1" d="M 232.5 145 L 234 145.5 L 234 155 L 225.5 159 L 225 149.5 L 232.5 145 Z " /><path fill="rgb(111,88,56)" stroke="rgb(111,88,56)" stroke-width="1" opacity="1" d="M 207.5 147 L 209 147.5 L 209 166.5 L 200 171 L 200 162.5 L 198.5 162 L 192 165 L 192 155.5 L 193.5 154 L 207.5 147 Z " /><path fill="rgb(111,88,56)" stroke="rgb(111,88,56)" stroke-width="1" opacity="1" d="M 275.5 154 L 276 165 L 259 173.5 L 259.5 183 L 276 175 L 276 184.5 L 274.5 186 L 259 193 L 258.5 183 L 251 187.5 L 251 197.5 L 249.5 198 L 234.5 206 L 234 195 L 251 186.5 L 250.5 177 L 225.5 190 L 225 179 L 275.5 154 Z " /><path fill="rgb(111,88,56)" stroke="rgb(111,88,56)" stroke-width="1" opacity="1" d="M 190.5 166 L 192 166.5 L 192 176 L 184 179 L 184 169.5 L 185.5 169 L 190.5 166 Z " /><path fill="rgb(111,88,56)" stroke="rgb(111,88,56)" stroke-width="1" opacity="1" d="M 174.5 184 L 175 195 L 158.5 203 L 158 192 L 174.5 184 Z " /><path fill="rgb(111,88,56)" stroke="rgb(111,88,56)" stroke-width="1" opacity="1" d="M 275.5 195 L 276 206 L 267.5 210 L 267 199 L 275.5 195 Z " /><path fill="rgb(111,88,56)" stroke="rgb(111,88,56)" stroke-width="1" opacity="1" d="M 173.5 205 L 175 205.5 L 175 214.5 L 158 223 L 158 213.5 L 159.5 212 L 173.5 205 Z " /><path fill="rgb(111,88,56)" stroke="rgb(111,88,56)" stroke-width="1" opacity="1" d="M 198.5 213 L 200 213.5 L 200 222.5 L 158.5 244 L 158 233 L 198.5 213 Z " /><path fill="rgb(111,88,56)" stroke="rgb(111,88,56)" stroke-width="1" opacity="1" d="M 274.5 216 L 276 216.5 L 276 225.5 L 242.5 243 L 242 233 L 234 236 L 234 246.5 L 232.5 248 L 225 251 L 225 231.5 L 226.5 230 L 242 223 L 242 231.5 L 243.5 232 L 274.5 216 Z " /><path fill="rgb(111,88,56)" stroke="rgb(111,88,56)" stroke-width="1" opacity="1" d="M 207.5 229 L 209 229.5 L 209 260 L 192.5 268 L 192 258 L 184 261 L 184 241.5 L 185.5 240 L 191.5 237 L 192 247 L 200 244 L 200 233.5 L 201.5 232 L 207.5 229 Z " /><path fill="rgb(111,88,56)" stroke="rgb(111,88,56)" stroke-width="1" opacity="1" d="M 173.5 246 L 175 246.5 L 175 255.5 L 158 264 L 158 254.5 L 159.5 253 L 173.5 246 Z " /><path fill="rgb(111,88,56)" stroke="rgb(111,88,56)" stroke-width="1" opacity="1" d="M 166.5 270 L 167 281 L 158.5 285 L 158 274 L 166.5 270 Z " /><path fill="rgb(147,119,75)" stroke="rgb(147,119,75)" stroke-width="1" opacity="1" d="M 24.5 82 L 41 90 L 40.5 101 L 33.5 97 L 32.5 107 L 24 103 L 24.5 82 Z " /><path fill="rgb(147,119,75)" stroke="rgb(147,119,75)" stroke-width="1" opacity="1" d="M 49 95 L 66 103.5 L 66 112.5 L 64.5 113 L 49 104.5 L 49 95 Z " /><path fill="rgb(147,119,75)" stroke="rgb(147,119,75)" stroke-width="1" opacity="1" d="M 66 114 L 75 118.5 L 74.5 128 L 66 124 L 66 114 Z " /><path fill="rgb(147,119,75)" stroke="rgb(147,119,75)" stroke-width="1" opacity="1" d="M 108.5 114 L 142 131.5 L 142 160.5 L 140.5 161 L 125 152.5 L 125 132.5 L 123.5 132 L 116.5 128 L 116 148 L 91 135.5 L 91.5 126 L 108 134 L 108.5 114 Z " /><path fill="rgb(147,119,75)" stroke="rgb(147,119,75)" stroke-width="1" opacity="1" d="M 58.5 130 L 75 138 L 75 168.5 L 73.5 169 L 49 157 L 49.5 136 L 58 140 L 58.5 130 Z " /><path fill="rgb(147,119,75)" stroke="rgb(147,119,75)" stroke-width="1" opacity="1" d="M 24 134 L 41 142.5 L 41 151.5 L 39.5 152 L 24 143.5 L 24 134 Z " /><path fill="rgb(147,119,75)" stroke="rgb(147,119,75)" stroke-width="1" opacity="1" d="M 24.5 154 L 41 162 L 40.5 173 L 24 165 L 24.5 154 Z " /><path fill="rgb(147,119,75)" stroke="rgb(147,119,75)" stroke-width="1" opacity="1" d="M 91.5 157 L 100 161 L 100 170.5 L 98.5 171 L 91 166.5 L 91.5 157 Z " /><path fill="rgb(147,119,75)" stroke="rgb(147,119,75)" stroke-width="1" opacity="1" d="M 24 175 L 33 179.5 L 33 188.5 L 31.5 189 L 24 184.5 L 24 175 Z " /><path fill="rgb(147,119,75)" stroke="rgb(147,119,75)" stroke-width="1" opacity="1" d="M 66 186 L 75 190.5 L 74.5 200 L 66 196 L 66 186 Z " /><path fill="rgb(147,119,75)" stroke="rgb(147,119,75)" stroke-width="1" opacity="1" d="M 91 188 L 108 196.5 L 108 205.5 L 106.5 206 L 91 197.5 L 91 188 Z " /><path fill="rgb(147,119,75)" stroke="rgb(147,119,75)" stroke-width="1" opacity="1" d="M 24.5 195 L 41 203 L 40.5 214 L 24 206 L 24.5 195 Z " /><path fill="rgb(147,119,75)" stroke="rgb(147,119,75)" stroke-width="1" opacity="1" d="M 49 208 L 58 212.5 L 58 222.5 L 59.5 223 L 66 226 L 66.5 216 L 75 220 L 75 250.5 L 73.5 251 L 58 242.5 L 58 232.5 L 56.5 232 L 49 227.5 L 49 208 Z " /><path fill="rgb(147,119,75)" stroke="rgb(147,119,75)" stroke-width="1" opacity="1" d="M 100 213 L 116 220 L 115.5 231 L 100 222.5 L 100 213 Z " /><path fill="rgb(147,119,75)" stroke="rgb(147,119,75)" stroke-width="1" opacity="1" d="M 24 216 L 33 220.5 L 33 229.5 L 31.5 230 L 24 225.5 L 24 216 Z " /><path fill="rgb(147,119,75)" stroke="rgb(147,119,75)" stroke-width="1" opacity="1" d="M 91.5 239 L 108 247 L 108 256.5 L 106.5 257 L 100 254 L 99.5 264 L 91 260 L 91.5 239 Z " /><path fill="rgb(147,119,75)" stroke="rgb(147,119,75)" stroke-width="1" opacity="1" d="M 108 258 L 142 274 L 141.5 285 L 108 267.5 L 108 258 Z " /><path fill="rgb(30,26,14)" stroke="rgb(30,26,14)" stroke-width="1" opacity="1" d="M 250.5 51 L 259 55.5 L 252.5 59 L 249.5 59 L 243 55.5 L 250.5 51 Z " /><path fill="rgb(30,26,14)" stroke="rgb(30,26,14)" stroke-width="1" opacity="1" d="M 265.5 60 L 268.5 60 L 283 67 Q 284.1 69.7 281.5 69 L 275.5 72 L 259 63.5 L 265.5 60 Z " /><path fill="rgb(30,26,14)" stroke="rgb(30,26,14)" stroke-width="1" opacity="1" d="M 31.5 68 L 40 71 Q 41.1 73.7 38.5 73 L 31.5 76 L 25 73 Q 23.9 70.3 26.5 71 L 31.5 68 Z " /><path fill="rgb(30,26,14)" stroke="rgb(30,26,14)" stroke-width="1" opacity="1" d="M 49.5 76 L 58 80.5 L 49.5 85 L 41 80.5 L 49.5 76 Z " /><path fill="rgb(30,26,14)" stroke="rgb(30,26,14)" stroke-width="1" opacity="1" d="M 241.5 89 L 242 98.5 L 234.5 103 L 234 93.5 L 241.5 89 Z " /><path fill="rgb(30,26,14)" stroke="rgb(30,26,14)" stroke-width="1" opacity="1" d="M 216.5 93 L 225 97.5 L 218.5 101 L 215.5 101 L 209 97.5 L 216.5 93 Z " /><path fill="rgb(30,26,14)" stroke="rgb(30,26,14)" stroke-width="1" opacity="1" d="M 66.5 103 L 75 107 L 75 117.5 L 76.5 119 L 83 122.5 L 82.5 132 L 75 127.5 L 75 118.5 L 73.5 117 L 66 114 L 66.5 103 Z " /><path fill="rgb(30,26,14)" stroke="rgb(30,26,14)" stroke-width="1" opacity="1" d="M 199.5 110 L 200 119.5 L 192.5 124 L 192 114.5 L 199.5 110 Z " /><path fill="rgb(30,26,14)" stroke="rgb(30,26,14)" stroke-width="1" opacity="1" d="M 91 116 L 100 120.5 L 100 129.5 L 98.5 130 L 91 125.5 L 91 116 Z " /><path fill="rgb(30,26,14)" stroke="rgb(30,26,14)" stroke-width="1" opacity="1" d="M 224.5 118 L 225 127.5 L 209.5 136 L 209 126.5 L 224.5 118 Z " /><path fill="rgb(30,26,14)" stroke="rgb(30,26,14)" stroke-width="1" opacity="1" d="M 41.5 132 L 49 136.5 L 48.5 177 L 41 172.5 L 41.5 132 Z " /><path fill="rgb(30,26,14)" stroke="rgb(30,26,14)" stroke-width="1" opacity="1" d="M 75 139 L 83 142 L 83 152.5 L 84.5 154 L 91 157.5 L 91 176.5 L 89.5 177 L 75 170 L 75 139 Z " /><path fill="rgb(30,26,14)" stroke="rgb(30,26,14)" stroke-width="1" opacity="1" d="M 223.5 139 L 225 139.5 L 225 158.5 L 217.5 163 L 217 142 L 223.5 139 Z " /><path fill="rgb(30,26,14)" stroke="rgb(30,26,14)" stroke-width="1" opacity="1" d="M 108 145 L 133 157.5 L 132.5 188 L 108 176 L 108 145 Z M 117 159 L 116 170 L 125 174 L 125 163 L 117 159 Z " /><path fill="rgb(30,26,14)" stroke="rgb(30,26,14)" stroke-width="1" opacity="1" d="M 223.5 180 L 225 180.5 L 225 189.5 L 217 194.5 L 217 203.5 L 215.5 205 L 209.5 208 L 209 187 L 223.5 180 Z " /><path fill="rgb(30,26,14)" stroke="rgb(30,26,14)" stroke-width="1" opacity="1" d="M 75.5 190 L 91 198.5 L 91 217.5 L 89.5 218 L 83 215 L 83 204.5 L 81.5 203 L 75 199.5 L 75.5 190 Z " /><path fill="rgb(30,26,14)" stroke="rgb(30,26,14)" stroke-width="1" opacity="1" d="M 83 225 L 91 228 L 90.5 239 L 83.5 235 L 83 255 L 75 252 L 75.5 231 L 82.5 235 L 83 225 Z " /><path fill="rgb(30,26,14)" stroke="rgb(30,26,14)" stroke-width="1" opacity="1" d="M 116.5 231 L 125 235 L 125 244.5 L 123.5 245 L 116 240.5 L 116.5 231 Z " /><path fill="rgb(30,26,14)" stroke="rgb(30,26,14)" stroke-width="1" opacity="1" d="M 224.5 231 L 225 252 L 217 255 L 217 235.5 L 218.5 234 L 224.5 231 Z " /><path fill="rgb(73,53,32)" stroke="rgb(73,53,32)" stroke-width="1" opacity="1" d="M 149.5 26 L 158 30.5 L 134 42.5 L 173.5 63 L 176.5 63 L 183.5 59 L 192 63.5 L 184 67.5 L 191 71 Q 192.1 73.7 189.5 73 L 182.5 76 L 174.5 72 L 159 80.5 L 175.5 89 L 216 69 Q 217.1 66.3 214.5 67 L 200 59.5 L 208.5 55 L 233 67 Q 234.1 69.7 231.5 69 L 149.5 110 L 133 101.5 L 141.5 97 L 148.5 101 L 151.5 101 L 166 94 Q 167.1 91.3 164.5 92 L 142 80.5 L 166 67.5 L 151.5 60 L 148.5 60 L 134 67.5 L 141 71 Q 142.1 73.7 139.5 73 L 132.5 76 L 124.5 72 L 108 80.5 L 124.5 89 L 131.5 85 L 134.5 85 L 141 88.5 L 123.5 97 L 91 80.5 L 116 67.5 L 100 59.5 L 108 55.5 L 101 52 Q 99.9 49.3 102.5 50 L 108.5 47 L 116 51.5 L 109 55.5 L 123.5 63 L 126.5 63 L 141 55.5 L 117 42.5 L 149.5 26 Z " /><path fill="rgb(73,53,32)" stroke="rgb(73,53,32)" stroke-width="1" opacity="1" d="M 166.5 34 L 191 46 Q 192.1 48.7 189.5 48 L 182.5 51 L 174.5 47 L 166.5 51 L 159 46.5 L 166 42.5 L 158 38.5 L 166.5 34 Z " /><path fill="rgb(73,53,32)" stroke="rgb(73,53,32)" stroke-width="1" opacity="1" d="M 81.5 60 L 84.5 60 L 91 63.5 L 84 67 Q 82.9 69.7 85.5 69 L 90 71 Q 91.1 73.7 88.5 73 L 81.5 76 L 75 72.5 L 82 69 Q 83.1 66.3 80.5 67 L 75 63.5 L 81.5 60 Z " /><path fill="rgb(73,53,32)" stroke="rgb(73,53,32)" stroke-width="1" opacity="1" d="M 258.5 101 L 259.5 111 L 276 103 L 276 112.5 L 274.5 114 L 251 125 L 251 135.5 L 249.5 137 L 234 144 L 233.5 134 L 225 138 L 225 128.5 L 226.5 127 L 234 124 L 234.5 134 L 242 129.5 L 242 119.5 L 243.5 119 L 251 114.5 L 251 105.5 L 252.5 104 L 258.5 101 Z " /><path fill="rgb(73,53,32)" stroke="rgb(73,53,32)" stroke-width="1" opacity="1" d="M 183.5 128 L 184 138 L 192 135 L 192 143.5 L 193.5 144 L 208.5 136 L 209 147 L 192.5 155 L 192 145 L 184 148 L 184 139.5 L 182.5 139 L 175.5 143 L 175 132 L 183.5 128 Z " /><path fill="rgb(73,53,32)" stroke="rgb(73,53,32)" stroke-width="1" opacity="1" d="M 275.5 144 L 276 153.5 L 251 166 L 251 156.5 L 252.5 156 L 275.5 144 Z " /><path fill="rgb(73,53,32)" stroke="rgb(73,53,32)" stroke-width="1" opacity="1" d="M 174.5 153 L 175 163 L 183.5 159 L 184 170 L 175 174.5 L 175 183.5 L 173.5 185 L 167.5 188 L 167 178.5 L 175 173.5 L 175 164.5 L 173.5 164 L 158.5 172 L 158 161 L 174.5 153 Z " /><path fill="rgb(73,53,32)" stroke="rgb(73,53,32)" stroke-width="1" opacity="1" d="M 241.5 161 L 242 170.5 L 225 179 L 225 169.5 L 226.5 169 L 241.5 161 Z " /><path fill="rgb(73,53,32)" stroke="rgb(73,53,32)" stroke-width="1" opacity="1" d="M 208.5 167 L 209 188 L 192 196.5 L 192 206.5 L 190.5 207 L 184 210 L 183.5 200 L 158.5 213 L 158 203.5 L 184 189.5 L 184 179.5 L 185.5 179 L 192 176 L 192.5 186 L 200 181.5 L 200 171.5 L 201.5 171 L 208.5 167 Z M 192 186 L 184 191 L 185 200 L 192 196 L 192 186 Z " /><path fill="rgb(73,53,32)" stroke="rgb(73,53,32)" stroke-width="1" opacity="1" d="M 250.5 177 L 251 186.5 L 242 191 L 242 181.5 L 243.5 181 L 250.5 177 Z " /><path fill="rgb(73,53,32)" stroke="rgb(73,53,32)" stroke-width="1" opacity="1" d="M 275.5 185 L 276 194.5 L 267 199 L 267 209.5 L 265.5 211 L 259.5 214 L 259 193 L 275.5 185 Z " /><path fill="rgb(73,53,32)" stroke="rgb(73,53,32)" stroke-width="1" opacity="1" d="M 208.5 198 L 209 207.5 L 200 212 L 200 202.5 L 201.5 202 L 208.5 198 Z " /><path fill="rgb(73,53,32)" stroke="rgb(73,53,32)" stroke-width="1" opacity="1" d="M 249.5 198 L 251 198.5 L 251 208 L 225 220 L 225 210.5 L 226.5 210 L 249.5 198 Z " /><path fill="rgb(73,53,32)" stroke="rgb(73,53,32)" stroke-width="1" opacity="1" d="M 207.5 219 L 209 219.5 L 209 229 L 158.5 254 L 158 244.5 L 207.5 219 Z " /><path fill="rgb(73,53,32)" stroke="rgb(73,53,32)" stroke-width="1" opacity="1" d="M 275.5 226 L 276 235.5 L 259 244 L 259 234.5 L 260.5 234 L 275.5 226 Z " /><path fill="rgb(73,53,32)" stroke="rgb(73,53,32)" stroke-width="1" opacity="1" d="M 249.5 239 L 251 239.5 L 251 249 L 225 261 L 225 251.5 L 226.5 251 L 249.5 239 Z " /><path fill="rgb(73,53,32)" stroke="rgb(73,53,32)" stroke-width="1" opacity="1" d="M 174.5 256 L 175.5 266 L 184 262 L 184.5 272 L 209 260 L 209 269.5 L 207.5 270 L 158.5 295 L 158 285.5 L 175 277 L 174.5 266 L 167.5 270 L 167 260.5 L 174.5 256 Z " /><path fill="rgb(93,77,46)" stroke="rgb(93,77,46)" stroke-width="1" opacity="1" d="M 41 91 L 49 94 L 48.5 105 L 41 100.5 L 41 91 Z " /><path fill="rgb(93,77,46)" stroke="rgb(93,77,46)" stroke-width="1" opacity="1" d="M 257.5 91 L 259 91.5 L 259 100.5 L 251.5 105 L 251 94 L 257.5 91 Z " /><path fill="rgb(93,77,46)" stroke="rgb(93,77,46)" stroke-width="1" opacity="1" d="M 241.5 99 L 242 110 L 234 113 L 234 103.5 L 235.5 102 L 241.5 99 Z " /><path fill="rgb(93,77,46)" stroke="rgb(93,77,46)" stroke-width="1" opacity="1" d="M 191.5 114 L 192 123.5 L 158.5 141 L 158 131.5 L 191.5 114 Z " /><path fill="rgb(93,77,46)" stroke="rgb(93,77,46)" stroke-width="1" opacity="1" d="M 58 120 L 75 128.5 L 75 137.5 L 73.5 138 L 58 129.5 L 58 120 Z " /><path fill="rgb(93,77,46)" stroke="rgb(93,77,46)" stroke-width="1" opacity="1" d="M 274.5 124 L 276 124.5 L 276 134 L 251.5 146 L 251 136.5 L 274.5 124 Z " /><path fill="rgb(93,77,46)" stroke="rgb(93,77,46)" stroke-width="1" opacity="1" d="M 33.5 128 L 41 132.5 L 40.5 142 L 33 137.5 L 33.5 128 Z " /><path fill="rgb(93,77,46)" stroke="rgb(93,77,46)" stroke-width="1" opacity="1" d="M 198.5 131 L 200 131.5 L 200 141 L 192 144 L 192 134.5 L 193.5 134 L 198.5 131 Z " /><path fill="rgb(93,77,46)" stroke="rgb(93,77,46)" stroke-width="1" opacity="1" d="M 233.5 134 L 234 145 L 225.5 149 L 225 138 L 233.5 134 Z " /><path fill="rgb(93,77,46)" stroke="rgb(93,77,46)" stroke-width="1" opacity="1" d="M 91.5 136 L 100 140 L 99.5 151 L 91 147 L 91.5 136 Z " /><path fill="rgb(93,77,46)" stroke="rgb(93,77,46)" stroke-width="1" opacity="1" d="M 116 139 L 125 143.5 L 124.5 153 L 116 149 L 116 139 Z " /><path fill="rgb(93,77,46)" stroke="rgb(93,77,46)" stroke-width="1" opacity="1" d="M 182.5 139 L 184 139.5 L 184 149 L 167.5 157 L 167 147.5 L 182.5 139 Z " /><path fill="rgb(93,77,46)" stroke="rgb(93,77,46)" stroke-width="1" opacity="1" d="M 24.5 144 L 33 148 L 33 157.5 L 31.5 158 L 24 153.5 L 24.5 144 Z " /><path fill="rgb(93,77,46)" stroke="rgb(93,77,46)" stroke-width="1" opacity="1" d="M 191.5 155 L 192 166 L 184 169 L 184 159.5 L 185.5 158 L 191.5 155 Z " /><path fill="rgb(93,77,46)" stroke="rgb(93,77,46)" stroke-width="1" opacity="1" d="M 232.5 155 L 234 155.5 L 234 164.5 L 225 169 L 225 159.5 L 226.5 158 L 232.5 155 Z " /><path fill="rgb(93,77,46)" stroke="rgb(93,77,46)" stroke-width="1" opacity="1" d="M 133.5 157 L 142 161 L 142 181.5 L 140.5 182 L 133 177.5 L 133.5 157 Z " /><path fill="rgb(93,77,46)" stroke="rgb(93,77,46)" stroke-width="1" opacity="1" d="M 116.5 159 L 125 163 L 124.5 174 L 116 170 L 116.5 159 Z " /><path fill="rgb(93,77,46)" stroke="rgb(93,77,46)" stroke-width="1" opacity="1" d="M 173.5 164 L 175 164.5 L 175 173.5 L 167 178.5 L 167 187.5 L 165.5 189 L 158 192 L 158 172.5 L 159.5 171 L 173.5 164 Z " /><path fill="rgb(93,77,46)" stroke="rgb(93,77,46)" stroke-width="1" opacity="1" d="M 274.5 165 L 276 165.5 L 276 175 L 259.5 183 L 259 173.5 L 274.5 165 Z " /><path fill="rgb(93,77,46)" stroke="rgb(93,77,46)" stroke-width="1" opacity="1" d="M 58.5 171 L 66 175.5 L 65.5 206 L 58 201.5 L 58.5 171 Z " /><path fill="rgb(93,77,46)" stroke="rgb(93,77,46)" stroke-width="1" opacity="1" d="M 91 178 L 100 182.5 L 99.5 192 L 91 188 L 91 178 Z " /><path fill="rgb(93,77,46)" stroke="rgb(93,77,46)" stroke-width="1" opacity="1" d="M 33.5 179 L 49 187.5 L 49 206.5 L 47.5 207 L 33 200 L 33.5 179 Z " /><path fill="rgb(93,77,46)" stroke="rgb(93,77,46)" stroke-width="1" opacity="1" d="M 240.5 182 L 242 182.5 L 242 192 L 234 195 L 234 205.5 L 232.5 207 L 225 210 L 225 190.5 L 226.5 189 L 240.5 182 Z " /><path fill="rgb(93,77,46)" stroke="rgb(93,77,46)" stroke-width="1" opacity="1" d="M 133.5 188 L 142 192 L 141.5 203 L 133 199 L 133.5 188 Z " /><path fill="rgb(93,77,46)" stroke="rgb(93,77,46)" stroke-width="1" opacity="1" d="M 108.5 196 L 116 200.5 L 116 219.5 L 114.5 220 L 108 217 L 108.5 196 Z " /><path fill="rgb(93,77,46)" stroke="rgb(93,77,46)" stroke-width="1" opacity="1" d="M 274.5 206 L 276 206.5 L 276 216 L 242 232 L 242 223.5 L 240.5 223 L 225.5 231 L 225 220 L 251 208 L 251.5 218 L 274.5 206 Z " /><path fill="rgb(93,77,46)" stroke="rgb(93,77,46)" stroke-width="1" opacity="1" d="M 208.5 208 L 209 219 L 200.5 223 L 200 212 L 208.5 208 Z " /><path fill="rgb(93,77,46)" stroke="rgb(93,77,46)" stroke-width="1" opacity="1" d="M 133 209 L 142 213.5 L 142 222.5 L 140.5 223 L 133 218.5 L 133 209 Z " /><path fill="rgb(93,77,46)" stroke="rgb(93,77,46)" stroke-width="1" opacity="1" d="M 33.5 210 L 41 214.5 L 40.5 224 L 33 219.5 L 33.5 210 Z " /><path fill="rgb(93,77,46)" stroke="rgb(93,77,46)" stroke-width="1" opacity="1" d="M 174.5 215 L 175 224.5 L 158 233 L 158 223.5 L 159.5 223 L 174.5 215 Z " /><path fill="rgb(93,77,46)" stroke="rgb(93,77,46)" stroke-width="1" opacity="1" d="M 91 219 L 116 231.5 L 115.5 241 L 91 229 L 91 219 Z " /><path fill="rgb(93,77,46)" stroke="rgb(93,77,46)" stroke-width="1" opacity="1" d="M 24.5 226 L 49 238 L 49 247.5 L 47.5 248 L 24 235.5 L 24.5 226 Z " /><path fill="rgb(93,77,46)" stroke="rgb(93,77,46)" stroke-width="1" opacity="1" d="M 133.5 229 L 142 233 L 141.5 244 L 133 240 L 133.5 229 Z " /><path fill="rgb(93,77,46)" stroke="rgb(93,77,46)" stroke-width="1" opacity="1" d="M 199.5 233 L 200 244 L 192 247 L 192 237.5 L 193.5 236 L 199.5 233 Z " /><path fill="rgb(93,77,46)" stroke="rgb(93,77,46)" stroke-width="1" opacity="1" d="M 240.5 233 L 242 233.5 L 242 242.5 L 234.5 247 L 234 236 L 240.5 233 Z " /><path fill="rgb(93,77,46)" stroke="rgb(93,77,46)" stroke-width="1" opacity="1" d="M 66.5 247 L 75 251 L 75 260.5 L 73.5 261 L 66 256.5 L 66.5 247 Z " /><path fill="rgb(93,77,46)" stroke="rgb(93,77,46)" stroke-width="1" opacity="1" d="M 133 250 L 142 254.5 L 142 263.5 L 140.5 264 L 133 259.5 L 133 250 Z " /><path fill="rgb(93,77,46)" stroke="rgb(93,77,46)" stroke-width="1" opacity="1" d="M 190.5 258 L 192 258.5 L 192 267.5 L 184.5 272 L 184 261 L 190.5 258 Z " /><path fill="rgb(93,77,46)" stroke="rgb(93,77,46)" stroke-width="1" opacity="1" d="M 91 260 L 108 268.5 L 107.5 278 L 91 270 L 91 260 Z " /><path fill="rgb(93,77,46)" stroke="rgb(93,77,46)" stroke-width="1" opacity="1" d="M 166.5 260 L 167.5 270 L 174.5 266 L 175 277 L 167 280 L 166.5 270 L 158 274 L 158 264.5 L 159.5 264 L 166.5 260 Z " /></svg>